<svg xmlns="http://www.w3.org/2000/svg" width="96" height="96" viewBox="0 0 24 24">
	<path d="M0 0h24v24H0z" fill="none" />
	<path fill="none" stroke="#f5761c" stroke-linejoin="round" stroke-width="2" d="M15 19c1.2-3.678 2.526-5.005 6-6c-3.474-.995-4.8-2.322-6-6c-1.2 3.678-2.526 5.005-6 6c3.474.995 4.8 2.322 6 6Zm-8-9c.6-1.84 1.263-2.503 3-3c-1.737-.497-2.4-1.16-3-3c-.6 1.84-1.263 2.503-3 3c1.737.497 2.4 1.16 3 3Zm1.5 10c.3-.92.631-1.251 1.5-1.5c-.869-.249-1.2-.58-1.5-1.5c-.3.92-.631 1.251-1.5 1.5c.869.249 1.2.58 1.5 1.5Z" />
</svg>
