<svg id="visual" viewBox="0 0 960 540" width="960" height="540" xmlns="http://www.w3.org/2000/svg" xmlns:xlink="http://www.w3.org/1999/xlink" version="1.1"><rect width="960" height="540" fill="#0c001e"></rect><g><g transform="translate(747 153)"><path d="M14.6 -8.5C17.8 -2.9 18.5 4.1 15.6 9.2C12.8 14.2 6.4 17.4 0.4 17.1C-5.6 16.9 -11.3 13.3 -14.3 8.2C-17.4 3 -17.9 -3.8 -15.1 -9.3C-12.2 -14.7 -6.1 -18.8 -0.2 -18.7C5.7 -18.6 11.4 -14.2 14.6 -8.5Z" fill="#2f2f2f"></path></g><g transform="translate(175 358)"><path d="M11 -5.9C13.5 -2 14.3 3.4 12.2 7.2C10.1 11 5 13.2 0.4 13C-4.3 12.8 -8.6 10.1 -10.6 6.4C-12.7 2.6 -12.5 -2.2 -10.3 -5.9C-8.2 -9.6 -4.1 -12.1 0.1 -12.1C4.2 -12.2 8.5 -9.8 11 -5.9Z" fill="#2f2f2f"></path></g><g transform="translate(853 494)"><path d="M8.5 -4.4C10.5 -1.5 11.2 2.7 9.6 5.8C7.9 9 4 11.1 0.4 10.9C-3.3 10.7 -6.5 8.1 -8.2 5C-9.8 1.9 -9.8 -1.9 -8.2 -4.7C-6.6 -7.4 -3.3 -9 0 -9C3.3 -9 6.6 -7.4 8.5 -4.4Z" fill="#2f2f2f"></path></g><g transform="translate(145 34)"><path d="M6.9 -3.8C8.2 -1.8 7.9 1.3 6.5 3.6C5.1 5.9 2.5 7.5 -0.2 7.6C-2.9 7.7 -5.8 6.3 -6.9 4.2C-8.1 2 -7.5 -1 -6 -3.1C-4.6 -5.3 -2.3 -6.5 0.3 -6.7C2.8 -6.8 5.7 -5.9 6.9 -3.8Z" fill="#2f2f2f"></path></g><g transform="translate(349 207)"><path d="M11.6 -7.1C13.7 -3 13.3 2.2 11 6C8.6 9.8 4.3 12.2 0.2 12.1C-4 12 -7.9 9.4 -10 5.8C-12.2 2.1 -12.5 -2.6 -10.5 -6.7C-8.5 -10.8 -4.3 -14.1 0.2 -14.3C4.7 -14.4 9.4 -11.3 11.6 -7.1Z" fill="#2f2f2f"></path></g><g transform="translate(793 293)"><path d="M9.6 -5.8C11.3 -2.5 10.9 1.8 9 4.8C7 7.8 3.5 9.6 0.1 9.6C-3.2 9.5 -6.5 7.6 -8.2 4.7C-9.8 1.8 -9.9 -2 -8.3 -5.2C-6.6 -8.4 -3.3 -11.1 0.3 -11.2C3.9 -11.4 7.8 -9.1 9.6 -5.8Z" fill="#2f2f2f"></path></g><g transform="translate(173 283)"><path d="M4.6 -2.9C5.5 -1.1 5.5 1 4.6 2.7C3.6 4.4 1.8 5.6 -0.2 5.7C-2.2 5.8 -4.5 4.8 -5.4 3.1C-6.4 1.5 -6.1 -0.9 -5 -2.8C-3.8 -4.7 -1.9 -6.2 0 -6.1C1.8 -6.1 3.7 -4.6 4.6 -2.9Z" fill="#2f2f2f"></path></g><g transform="translate(226 419)"><path d="M8.2 -4.8C9.6 -2.4 8.8 1.1 7.1 3.8C5.3 6.6 2.7 8.6 -0.4 8.8C-3.5 9 -6.9 7.5 -8.5 4.8C-10.1 2.2 -9.8 -1.7 -8.1 -4.3C-6.4 -6.8 -3.2 -8.2 0.1 -8.2C3.4 -8.3 6.9 -7.1 8.2 -4.8Z" fill="#2f2f2f"></path></g><g transform="translate(34 397)"><path d="M5.3 -2.8C6.5 -1 6.9 1.6 5.9 3.4C4.9 5.2 2.4 6.1 0 6.1C-2.4 6.1 -4.9 5.2 -5.9 3.4C-6.9 1.6 -6.6 -1 -5.4 -2.8C-4.2 -4.7 -2.1 -5.8 0 -5.8C2.1 -5.8 4.1 -4.7 5.3 -2.8Z" fill="#2f2f2f"></path></g><g transform="translate(273 64)"><path d="M7.8 -4.2C9.6 -1.4 10.2 2.4 8.7 5.2C7.2 7.9 3.6 9.5 0.1 9.4C-3.3 9.3 -6.6 7.5 -8.4 4.7C-10.2 1.8 -10.4 -2.2 -8.7 -5C-7.1 -7.8 -3.5 -9.4 -0.3 -9.2C3 -9.1 6 -7.1 7.8 -4.2Z" fill="#2f2f2f"></path></g><g transform="translate(800 231)"><path d="M10.6 -6C12.8 -2.3 13.1 2.7 11 6.6C8.9 10.5 4.5 13.3 -0.2 13.5C-4.8 13.6 -9.6 11 -11.7 7.1C-13.8 3.2 -13 -2 -10.6 -5.8C-8.2 -9.7 -4.1 -12.3 0 -12.3C4.2 -12.3 8.4 -9.8 10.6 -6Z" fill="#2f2f2f"></path></g><g transform="translate(326 424)"><path d="M6.9 -3.9C8.2 -1.7 8.1 1.5 6.7 4C5.3 6.5 2.7 8.3 -0.1 8.4C-2.9 8.5 -5.9 6.8 -7.1 4.4C-8.4 1.9 -8 -1.2 -6.5 -3.5C-5.1 -5.8 -2.5 -7.3 0.1 -7.3C2.8 -7.4 5.6 -6.1 6.9 -3.9Z" fill="#2f2f2f"></path></g><g transform="translate(383 337)"><path d="M13.2 -7.6C16 -2.9 16.2 3.3 13.6 8.1C10.9 12.9 5.5 16.3 0.4 16C-4.7 15.8 -9.5 12 -12.1 7.3C-14.6 2.5 -15 -3.2 -12.7 -7.7C-10.3 -12.1 -5.1 -15.3 0.1 -15.3C5.3 -15.4 10.5 -12.2 13.2 -7.6Z" fill="#2f2f2f"></path></g><g transform="translate(887 204)"><path d="M5.5 -3.1C6.6 -1.3 6.5 1.2 5.4 3.1C4.3 4.9 2.1 6.2 0.2 6.1C-1.8 6 -3.6 4.5 -4.6 2.7C-5.7 0.8 -6.1 -1.5 -5.3 -3.2C-4.4 -4.8 -2.2 -5.9 0 -5.9C2.2 -5.9 4.5 -4.9 5.5 -3.1Z" fill="#2f2f2f"></path></g><g transform="translate(803 128)"><path d="M7.5 -4C9.1 -1.5 9.4 2.1 8 4.4C6.5 6.8 3.3 8 0.3 7.8C-2.6 7.7 -5.3 6.1 -7 3.6C-8.7 1.1 -9.5 -2.4 -8.2 -4.8C-6.9 -7.1 -3.4 -8.2 -0.3 -8.1C2.9 -7.9 5.9 -6.5 7.5 -4Z" fill="#2f2f2f"></path></g><g transform="translate(259 467)"><path d="M5.7 -3.1C7 -1.2 7.2 1.6 6.1 3.5C5 5.5 2.5 6.7 0.2 6.6C-2.1 6.5 -4.1 5 -5.3 3C-6.5 1 -6.8 -1.5 -5.8 -3.4C-4.7 -5.2 -2.4 -6.2 -0.1 -6.2C2.2 -6.2 4.5 -5 5.7 -3.1Z" fill="#2f2f2f"></path></g><g transform="translate(110 247)"><path d="M7.3 -4.3C8.8 -1.7 8.7 1.6 7.2 3.9C5.7 6.2 2.9 7.4 0 7.4C-2.9 7.3 -5.7 6.2 -7.1 4C-8.4 1.8 -8.2 -1.4 -6.8 -4C-5.4 -6.6 -2.7 -8.5 0.1 -8.5C2.9 -8.6 5.9 -6.9 7.3 -4.3Z" fill="#2f2f2f"></path></g><g transform="translate(736 454)"><path d="M7.6 -4.3C9.2 -1.7 9.3 1.9 7.8 4.6C6.3 7.3 3.2 9 0.1 9C-3 9 -6 7.1 -7.3 4.6C-8.5 2 -8 -1.2 -6.5 -3.7C-5 -6.3 -2.5 -8.3 0.3 -8.5C3 -8.6 6.1 -6.9 7.6 -4.3Z" fill="#2f2f2f"></path></g><g transform="translate(550 75)"><path d="M11.3 -6.2C13.6 -2.5 13.7 2.7 11.5 6.2C9.2 9.7 4.6 11.5 -0.1 11.5C-4.8 11.6 -9.6 9.9 -11.8 6.5C-14 3 -13.6 -2.3 -11.2 -6.1C-8.8 -9.9 -4.4 -12.1 0.1 -12.2C4.5 -12.2 9 -10 11.3 -6.2Z" fill="#2f2f2f"></path></g><g transform="translate(886 446)"><path d="M8.8 -5.3C10.6 -2.1 10.5 2 8.7 4.8C6.9 7.6 3.5 9.3 -0.2 9.4C-3.9 9.5 -7.8 8.1 -9.6 5.3C-11.3 2.5 -10.8 -1.7 -8.9 -5C-6.9 -8.4 -3.5 -10.7 0 -10.8C3.5 -10.8 7.1 -8.5 8.8 -5.3Z" fill="#2f2f2f"></path></g><g transform="translate(575 300)"><path d="M12.3 -7C15 -2.4 15.7 3.5 13.3 8.2C10.9 12.9 5.4 16.3 -0.1 16.4C-5.6 16.4 -11.2 13.1 -13.9 8.3C-16.5 3.4 -16.2 -2.8 -13.4 -7.5C-10.5 -12.1 -5.3 -15.1 -0.2 -14.9C4.8 -14.8 9.6 -11.5 12.3 -7Z" fill="#2f2f2f"></path></g><g transform="translate(66 69)"><path d="M14.5 -8.6C17.3 -3.5 17.2 3.2 14.2 7.8C11.3 12.4 5.7 14.9 0.1 14.8C-5.4 14.8 -10.8 12.1 -13.9 7.4C-17 2.7 -17.7 -4 -15 -9.1C-12.3 -14.2 -6.1 -17.7 -0.2 -17.6C5.8 -17.5 11.7 -13.8 14.5 -8.6Z" fill="#2f2f2f"></path></g><g transform="translate(129 502)"><path d="M6.5 -3.6C7.9 -1.4 8.1 1.7 6.8 4.1C5.5 6.4 2.8 8 0.1 7.9C-2.6 7.9 -5.2 6.2 -6.5 3.8C-7.8 1.5 -7.8 -1.5 -6.5 -3.7C-5.3 -5.9 -2.6 -7.2 0 -7.2C2.6 -7.2 5.1 -5.8 6.5 -3.6Z" fill="#2f2f2f"></path></g><g transform="translate(697 80)"><path d="M6.3 -3.8C7.6 -1.4 7.7 1.5 6.4 3.9C5.2 6.2 2.6 7.9 0.1 7.9C-2.4 7.8 -4.8 6 -6.1 3.6C-7.5 1.2 -7.7 -1.7 -6.5 -4C-5.3 -6.2 -2.7 -7.9 -0.1 -7.9C2.5 -7.8 5 -6.1 6.3 -3.8Z" fill="#2f2f2f"></path></g><g transform="translate(427 487)"><path d="M13.4 -7.8C15.6 -3.8 14.6 2 11.9 6.2C9.1 10.3 4.5 12.7 -0.4 12.9C-5.3 13.1 -10.6 11.1 -13 7.2C-15.4 3.3 -14.9 -2.5 -12.2 -6.7C-9.6 -10.9 -4.8 -13.4 0.4 -13.7C5.5 -13.9 11.1 -11.7 13.4 -7.8Z" fill="#2f2f2f"></path></g><g transform="translate(262 372)"><path d="M11.5 -6.8C13.7 -2.9 13.3 2.2 10.9 6.5C8.6 10.7 4.3 13.9 0 13.9C-4.2 13.8 -8.4 10.5 -10.6 6.4C-12.8 2.3 -13 -2.7 -10.9 -6.5C-8.8 -10.3 -4.4 -13 0.1 -13.1C4.7 -13.2 9.4 -10.6 11.5 -6.8Z" fill="#2f2f2f"></path></g><g transform="translate(200 184)"><path d="M9.3 -5.2C11.5 -1.6 12.3 3 10.5 6.4C8.8 9.8 4.4 11.9 0.2 11.8C-4 11.7 -7.9 9.3 -9.8 5.8C-11.8 2.3 -11.7 -2.2 -9.7 -5.7C-7.7 -9.2 -3.9 -11.7 -0.2 -11.6C3.5 -11.5 7.1 -8.8 9.3 -5.2Z" fill="#2f2f2f"></path></g><g transform="translate(717 315)"><path d="M7.7 -4.5C9.3 -1.6 9.5 2 8 4.9C6.5 7.8 3.3 10.1 -0.1 10.1C-3.6 10.2 -7.1 8.2 -8.9 5.1C-10.8 2 -10.9 -2.2 -9.1 -5.2C-7.4 -8.1 -3.7 -9.9 -0.3 -9.7C3 -9.5 6.1 -7.4 7.7 -4.5Z" fill="#2f2f2f"></path></g><g transform="translate(54 120)"><path d="M13.7 -8.3C16.3 -3.4 16 2.8 13.2 7.9C10.4 13 5.2 17 -0.4 17.2C-6 17.4 -12.1 13.9 -15 8.8C-17.9 3.6 -17.6 -3.2 -14.6 -8.3C-11.6 -13.4 -5.8 -16.8 -0.1 -16.7C5.6 -16.6 11.1 -13.1 13.7 -8.3Z" fill="#2f2f2f"></path></g><g transform="translate(912 80)"><path d="M13.4 -7.3C16 -3.3 15.6 2.7 12.9 7.1C10.2 11.5 5.1 14.2 0 14.2C-5.1 14.2 -10.1 11.5 -12.8 7.1C-15.5 2.7 -15.9 -3.3 -13.3 -7.3C-10.8 -11.3 -5.4 -13.3 0 -13.3C5.4 -13.3 10.9 -11.4 13.4 -7.3Z" fill="#2f2f2f"></path></g><g transform="translate(101 189)"><path d="M9.4 -5.1C11.3 -2 11.5 2.4 9.6 5.6C7.8 8.8 3.9 10.9 0.1 10.9C-3.7 10.8 -7.3 8.6 -9.2 5.3C-11.2 2 -11.3 -2.3 -9.5 -5.3C-7.7 -8.3 -3.8 -9.9 -0.1 -9.9C3.7 -9.8 7.4 -8.1 9.4 -5.1Z" fill="#2f2f2f"></path></g><g transform="translate(787 414)"><path d="M12.8 -7.5C15.7 -2.4 16.5 3.8 14 8C11.5 12.3 5.7 14.7 0.4 14.4C-4.9 14.2 -9.8 11.4 -12.4 7C-15 2.7 -15.3 -3.1 -12.8 -8C-10.4 -12.9 -5.2 -16.8 -0.1 -16.8C5 -16.7 9.9 -12.7 12.8 -7.5Z" fill="#2f2f2f"></path></g><g transform="translate(489 67)"><path d="M8.2 -5.1C9.7 -2.1 9.4 1.6 7.7 4.5C6.1 7.3 3 9.4 -0.2 9.5C-3.5 9.7 -7.1 7.9 -9 4.9C-10.9 1.9 -11.2 -2.4 -9.4 -5.6C-7.6 -8.8 -3.8 -11 -0.3 -10.8C3.3 -10.7 6.6 -8.2 8.2 -5.1Z" fill="#2f2f2f"></path></g><g transform="translate(578 143)"><path d="M7.8 -4.5C9.3 -1.8 9.2 1.7 7.6 4.2C6.1 6.7 3 8 0 8C-3 8 -6.1 6.7 -7.6 4.2C-9.2 1.7 -9.3 -1.8 -7.7 -4.4C-6.2 -7.1 -3.1 -8.7 0 -8.7C3.1 -8.7 6.2 -7.1 7.8 -4.5Z" fill="#2f2f2f"></path></g><g transform="translate(745 67)"><path d="M8.4 -4.9C9.9 -2.4 9.2 1.3 7.4 4.4C5.7 7.5 2.8 10.1 -0.1 10.2C-3.1 10.3 -6.2 7.8 -7.9 4.8C-9.5 1.7 -9.7 -2 -8.1 -4.6C-6.6 -7.2 -3.3 -8.6 0.1 -8.7C3.5 -8.8 7 -7.4 8.4 -4.9Z" fill="#2f2f2f"></path></g><g transform="translate(192 132)"><path d="M5.7 -3.4C6.7 -1.5 6.5 1.1 5.3 3C4.2 4.9 2.1 6.1 -0.1 6.2C-2.3 6.3 -4.7 5.2 -5.9 3.2C-7.2 1.3 -7.3 -1.5 -6.1 -3.6C-4.9 -5.6 -2.5 -6.9 -0.1 -6.9C2.3 -6.8 4.6 -5.4 5.7 -3.4Z" fill="#2f2f2f"></path></g><g transform="translate(900 397)"><path d="M13.6 -7.6C16.3 -3.2 16.3 3.1 13.5 7.8C10.8 12.5 5.4 15.7 0 15.7C-5.3 15.6 -10.6 12.4 -13.6 7.6C-16.5 2.7 -17.2 -3.8 -14.5 -8.1C-11.9 -12.5 -5.9 -14.6 -0.2 -14.5C5.5 -14.4 10.9 -11.9 13.6 -7.6Z" fill="#2f2f2f"></path></g><g transform="translate(433 380)"><path d="M15.2 -8.4C18.3 -3.4 18.5 3.7 15.5 8.8C12.5 13.9 6.2 17 0.2 16.9C-5.8 16.7 -11.6 13.4 -14.3 8.5C-17 3.6 -16.6 -2.9 -13.7 -7.8C-10.8 -12.7 -5.4 -16 0.3 -16.2C6 -16.4 12.1 -13.4 15.2 -8.4Z" fill="#2f2f2f"></path></g><g transform="translate(690 500)"><path d="M14.9 -8.3C17.7 -3.7 17.3 3 14.2 7.6C11.2 12.1 5.6 14.5 0 14.5C-5.5 14.4 -11 12 -13.7 7.6C-16.4 3.3 -16.3 -3 -13.5 -7.6C-10.8 -12.1 -5.4 -15 0.3 -15.1C6 -15.3 12.1 -12.9 14.9 -8.3Z" fill="#2f2f2f"></path></g><g transform="translate(580 224)"><path d="M7.5 -4.4C9 -1.8 9 1.7 7.5 4.4C6 7.1 3 9.1 0 9C-3 9 -5.9 7.1 -7.3 4.5C-8.7 1.9 -8.4 -1.4 -6.9 -4.1C-5.4 -6.8 -2.7 -8.8 0.2 -8.9C3 -9 6.1 -7.1 7.5 -4.4Z" fill="#2f2f2f"></path></g><g transform="translate(483 141)"><path d="M11.4 -6.3C14 -2.1 14.8 3.4 12.6 7.9C10.4 12.4 5.2 15.8 0.3 15.6C-4.6 15.4 -9.2 11.7 -11.5 7.1C-13.9 2.6 -14.1 -2.8 -11.8 -6.8C-9.5 -10.9 -4.7 -13.5 -0.2 -13.4C4.4 -13.4 8.8 -10.5 11.4 -6.3Z" fill="#2f2f2f"></path></g><g transform="translate(927 239)"><path d="M11.2 -6.8C13.3 -2.9 12.9 2.1 10.6 6C8.3 9.9 4.2 12.6 -0.7 13C-5.5 13.4 -11 11.4 -13.3 7.5C-15.6 3.6 -14.9 -2.2 -12.1 -6.6C-9.4 -10.9 -4.7 -13.7 -0.1 -13.7C4.6 -13.6 9.2 -10.8 11.2 -6.8Z" fill="#2f2f2f"></path></g><g transform="translate(335 286)"><path d="M5.9 -3.6C7 -1.4 6.9 1.3 5.8 3.3C4.6 5.2 2.3 6.5 -0.2 6.6C-2.7 6.7 -5.4 5.7 -6.8 3.6C-8.2 1.5 -8.3 -1.6 -6.9 -4C-5.6 -6.3 -2.8 -7.8 -0.2 -7.6C2.4 -7.5 4.7 -5.8 5.9 -3.6Z" fill="#2f2f2f"></path></g><g transform="translate(251 219)"><path d="M7.7 -4.7C9.1 -2.1 8.6 1.3 7.1 3.8C5.5 6.3 2.7 7.9 -0.2 8C-3.1 8.1 -6.1 6.7 -7.6 4.3C-9.1 1.8 -9 -1.7 -7.5 -4.4C-6 -7 -3 -8.9 0.1 -8.9C3.2 -9 6.4 -7.3 7.7 -4.7Z" fill="#2f2f2f"></path></g><g transform="translate(103 447)"><path d="M8.4 -4.9C10.2 -1.7 10.5 2.2 8.8 5.1C7.2 7.9 3.6 9.7 0 9.6C-3.5 9.6 -7 7.8 -8.6 5C-10.3 2.2 -10 -1.7 -8.3 -4.9C-6.5 -8.1 -3.3 -10.5 0 -10.5C3.3 -10.5 6.6 -8.1 8.4 -4.9Z" fill="#2f2f2f"></path></g><g transform="translate(556 387)"><path d="M5.7 -3.1C6.8 -1.4 6.6 1.2 5.5 3C4.3 4.9 2.2 6 0 6.1C-2.2 6.1 -4.4 4.9 -5.4 3.2C-6.3 1.4 -6.1 -1 -5 -2.8C-3.9 -4.5 -2 -5.6 0.2 -5.7C2.3 -5.8 4.6 -4.9 5.7 -3.1Z" fill="#2f2f2f"></path></g><g transform="translate(410 60)"><path d="M8.1 -4.3C9.9 -1.6 10.3 2.3 8.7 5.3C7.1 8.4 3.5 10.6 0.2 10.5C-3.1 10.3 -6.3 7.9 -8 4.8C-9.6 1.7 -9.9 -2.1 -8.3 -4.7C-6.8 -7.3 -3.4 -8.6 -0.1 -8.6C3.2 -8.5 6.4 -7 8.1 -4.3Z" fill="#2f2f2f"></path></g><g transform="translate(661 340)"><path d="M9.4 -5.9C11.3 -2 11.5 2.4 9.7 5.6C7.8 8.8 3.9 10.8 -0.1 10.9C-4.2 11 -8.4 9.1 -10.6 5.7C-12.8 2.3 -13 -2.7 -10.9 -6.7C-8.8 -10.7 -4.4 -13.7 -0.3 -13.5C3.7 -13.3 7.4 -9.9 9.4 -5.9Z" fill="#2f2f2f"></path></g><g transform="translate(515 196)"><path d="M5.8 -3.5C6.9 -1.5 6.8 1.2 5.6 3.2C4.4 5.3 2.2 6.8 -0.3 7C-2.7 7.1 -5.4 5.9 -6.7 3.8C-8 1.7 -7.8 -1.4 -6.5 -3.5C-5.1 -5.7 -2.6 -7 -0.1 -6.9C2.4 -6.8 4.7 -5.5 5.8 -3.5Z" fill="#2f2f2f"></path></g><g transform="translate(382 102)"><path d="M7.3 -4.4C8.8 -1.7 8.8 1.7 7.3 4.7C5.9 7.6 2.9 10.1 -0.1 10.2C-3.1 10.2 -6.2 7.8 -7.9 4.7C-9.6 1.6 -9.9 -2.1 -8.4 -4.9C-6.8 -7.7 -3.4 -9.5 -0.2 -9.3C2.9 -9.2 5.9 -7.1 7.3 -4.4Z" fill="#2f2f2f"></path></g><g transform="translate(203 466)"><path d="M10.4 -6.3C12.2 -2.9 11.4 1.6 9.2 5.3C7.1 8.9 3.5 11.7 -0.1 11.7C-3.7 11.7 -7.4 9.1 -9.5 5.5C-11.5 1.8 -12 -2.7 -10.2 -6.1C-8.3 -9.5 -4.2 -11.9 0.1 -11.9C4.3 -11.9 8.6 -9.7 10.4 -6.3Z" fill="#2f2f2f"></path></g><g transform="translate(900 291)"><path d="M12.6 -7.4C14.8 -3.4 14.1 2.2 11.5 6.7C8.9 11.3 4.5 14.9 -0.1 14.9C-4.6 15 -9.2 11.5 -11.9 6.8C-14.6 2.2 -15.5 -3.6 -13.2 -7.7C-10.9 -11.8 -5.5 -14.2 -0.1 -14.1C5.2 -14 10.3 -11.5 12.6 -7.4Z" fill="#2f2f2f"></path></g><g transform="translate(644 126)"><path d="M8.4 -4.9C10.1 -1.8 10.2 2.1 8.5 5.2C6.9 8.4 3.4 10.7 -0.3 10.9C-4.1 11.1 -8.2 9.1 -10.3 5.7C-12.5 2.2 -12.7 -2.6 -10.7 -5.8C-8.6 -9 -4.3 -10.6 -0.5 -10.3C3.3 -10 6.6 -7.9 8.4 -4.9Z" fill="#2f2f2f"></path></g><g transform="translate(807 28)"><path d="M5.2 -3.1C6.3 -1 6.6 1.5 5.6 3.5C4.6 5.6 2.3 7.2 0.2 7.1C-2 7 -3.9 5.2 -5 3.2C-6 1.1 -6 -1.2 -5 -3.2C-4 -5.2 -2 -6.9 0 -6.9C2 -6.9 4 -5.2 5.2 -3.1Z" fill="#2f2f2f"></path></g><g transform="translate(336 119)"><path d="M9.6 -5.4C11.4 -2.4 11 1.9 9.1 5.1C7.1 8.3 3.6 10.4 0 10.4C-3.5 10.4 -7 8.2 -8.9 5.1C-10.8 1.9 -11.1 -2.3 -9.3 -5.3C-7.6 -8.3 -3.8 -10.1 0.1 -10.1C3.9 -10.2 7.8 -8.5 9.6 -5.4Z" fill="#2f2f2f"></path></g><g transform="translate(39 472)"><path d="M5.5 -3.4C6.4 -1.5 6.1 0.9 5 2.7C3.9 4.4 1.9 5.4 -0.1 5.5C-2.2 5.5 -4.3 4.6 -5.3 3C-6.4 1.3 -6.3 -1.2 -5.2 -3.1C-4.2 -5 -2.1 -6.5 0.1 -6.5C2.2 -6.6 4.5 -5.2 5.5 -3.4Z" fill="#2f2f2f"></path></g><g transform="translate(230 323)"><path d="M11.3 -6.7C13.4 -2.9 13 2.2 10.7 5.8C8.4 9.5 4.2 11.7 0.1 11.6C-3.9 11.5 -7.8 9.2 -9.9 5.7C-11.9 2.2 -12.1 -2.4 -10.1 -6.2C-8.2 -9.9 -4.1 -12.7 0.3 -12.9C4.6 -13.1 9.2 -10.5 11.3 -6.7Z" fill="#2f2f2f"></path></g><g transform="translate(116 304)"><path d="M6.3 -3.6C7.8 -1.1 8.3 2 7.1 4.1C5.9 6.2 3 7.3 0 7.2C-2.9 7.2 -5.8 6.1 -7.2 3.9C-8.6 1.7 -8.6 -1.6 -7.1 -4.1C-5.7 -6.6 -2.8 -8.3 -0.2 -8.2C2.4 -8 4.9 -6.1 6.3 -3.6Z" fill="#2f2f2f"></path></g><g transform="translate(501 461)"><path d="M10.4 -6C12.6 -2.2 12.9 2.7 10.9 6.7C8.8 10.6 4.4 13.6 0.3 13.5C-3.9 13.3 -7.7 10 -9.7 6.1C-11.6 2.2 -11.7 -2.3 -9.8 -5.9C-7.9 -9.5 -3.9 -12.2 0.1 -12.3C4.1 -12.3 8.2 -9.7 10.4 -6Z" fill="#2f2f2f"></path></g><g transform="translate(785 504)"><path d="M11 -6.3C12.8 -3.2 11.9 1.6 9.6 5.2C7.3 8.8 3.7 11.2 -0.1 11.3C-3.8 11.3 -7.7 9 -9.7 5.6C-11.6 2.2 -11.7 -2.3 -9.8 -5.5C-7.9 -8.8 -3.9 -10.7 0.3 -10.9C4.6 -11.1 9.1 -9.5 11 -6.3Z" fill="#2f2f2f"></path></g><g transform="translate(897 24)"><path d="M9.1 -5.4C10.8 -2.4 10.4 1.7 8.5 5C6.7 8.3 3.3 10.9 -0.3 11.1C-4 11.3 -8.1 9.1 -9.9 5.8C-11.7 2.5 -11.3 -1.9 -9.3 -5.1C-7.3 -8.3 -3.7 -10.4 0 -10.4C3.7 -10.4 7.4 -8.4 9.1 -5.4Z" fill="#2f2f2f"></path></g><g transform="translate(616 373)"><path d="M12.9 -7.3C15.6 -2.7 15.9 3.3 13.4 7.8C10.9 12.3 5.4 15.1 0.1 15C-5.2 15 -10.4 12 -12.6 7.7C-14.8 3.4 -14.1 -2.1 -11.5 -6.6C-8.9 -11.1 -4.4 -14.5 0.3 -14.7C5.1 -14.9 10.1 -11.9 12.9 -7.3Z" fill="#2f2f2f"></path></g><g transform="translate(283 150)"><path d="M10.4 -5.9C12.7 -2.1 13.2 2.9 11.1 6.4C9.1 9.9 4.5 11.8 0.5 11.5C-3.5 11.2 -6.9 8.6 -8.9 5.2C-10.8 1.8 -11.2 -2.5 -9.5 -6C-7.7 -9.5 -3.9 -12.3 0.1 -12.3C4.1 -12.4 8.1 -9.7 10.4 -5.9Z" fill="#2f2f2f"></path></g><g transform="translate(587 432)"><path d="M12.3 -6.9C15.1 -2.3 15.9 3.6 13.5 8.6C11.1 13.7 5.5 17.7 -0.3 17.9C-6.1 18.1 -12.3 14.4 -15.1 9.1C-18 3.8 -17.5 -3 -14.4 -7.7C-11.3 -12.5 -5.7 -15.2 -0.4 -14.9C4.8 -14.7 9.6 -11.5 12.3 -6.9Z" fill="#2f2f2f"></path></g><g transform="translate(141 141)"><path d="M5.8 -3.3C6.9 -1.4 6.8 1.2 5.7 3.4C4.5 5.5 2.3 7.1 0 7C-2.2 7 -4.4 5.4 -5.4 3.3C-6.5 1.3 -6.5 -1.2 -5.4 -3.2C-4.3 -5.1 -2.2 -6.4 0.1 -6.5C2.3 -6.5 4.7 -5.3 5.8 -3.3Z" fill="#2f2f2f"></path></g><g transform="translate(74 370)"><path d="M6.7 -3.8C8.2 -1.2 8.7 2.1 7.4 4.3C6.1 6.5 3.1 7.7 -0.1 7.7C-3.2 7.7 -6.3 6.6 -7.9 4.2C-9.5 1.9 -9.4 -1.8 -7.8 -4.4C-6.2 -6.9 -3.1 -8.5 -0.3 -8.3C2.6 -8.2 5.2 -6.3 6.7 -3.8Z" fill="#2f2f2f"></path></g><g transform="translate(421 248)"><path d="M10.1 -6.4C11.8 -2.7 11.2 1.7 9.2 5.6C7.1 9.4 3.6 12.7 -0.5 13C-4.6 13.2 -9.2 10.6 -11.3 6.7C-13.5 2.8 -13.2 -2.3 -11 -6.3C-8.7 -10.3 -4.3 -13 -0.1 -13C4.1 -12.9 8.3 -10 10.1 -6.4Z" fill="#2f2f2f"></path></g><g transform="translate(319 375)"><path d="M11.9 -7.3C14.2 -3 13.8 2.4 11.4 6.9C8.9 11.4 4.5 15 -0.3 15.2C-5 15.3 -10 12 -12.5 7.5C-14.9 3 -14.7 -2.7 -12.2 -7.1C-9.7 -11.6 -4.8 -14.8 0 -14.8C4.9 -14.8 9.7 -11.6 11.9 -7.3Z" fill="#2f2f2f"></path></g><g transform="translate(853 385)"><path d="M13.1 -7.5C15.9 -2.7 16.4 3.5 13.8 8.3C11.2 13 5.6 16.2 0.5 15.9C-4.6 15.7 -9.2 11.8 -11.5 7.3C-13.7 2.8 -13.5 -2.5 -11.2 -7C-8.9 -11.5 -4.4 -15.4 0.3 -15.6C5.1 -15.8 10.3 -12.3 13.1 -7.5Z" fill="#2f2f2f"></path></g><g transform="translate(446 28)"><path d="M5.1 -2.8C6.2 -1 6.5 1.5 5.5 3.3C4.5 5.1 2.3 6.3 0.2 6.2C-1.9 6 -3.7 4.6 -4.8 2.8C-5.8 1 -6 -1.3 -5.1 -3.1C-4.1 -4.8 -2.1 -6.1 -0.1 -6.1C2 -6 3.9 -4.7 5.1 -2.8Z" fill="#2f2f2f"></path></g><g transform="translate(531 502)"><path d="M10.3 -5.9C12.6 -1.9 13.3 3.1 11.3 6.9C9.4 10.6 4.7 13.1 0.1 13.1C-4.5 13 -9 10.4 -11.5 6.3C-14 2.3 -14.5 -3.2 -12.3 -7.2C-10.1 -11.1 -5 -13.5 -0.5 -13.2C4 -12.9 8 -9.9 10.3 -5.9Z" fill="#2f2f2f"></path></g><g transform="translate(837 191)"><path d="M8.7 -4.9C10.3 -2.3 9.9 1.6 8.1 4.4C6.3 7.3 3.1 9.2 0 9.2C-3.1 9.2 -6.2 7.3 -7.7 4.6C-9.2 1.8 -9.1 -1.7 -7.6 -4.3C-6 -6.9 -3 -8.6 0.3 -8.7C3.6 -8.9 7.2 -7.6 8.7 -4.9Z" fill="#2f2f2f"></path></g><g transform="translate(621 182)"><path d="M11.4 -6C13.8 -2.4 14.1 2.9 11.8 6.7C9.6 10.4 4.8 12.5 0.2 12.4C-4.5 12.3 -8.9 10 -11.3 6.2C-13.7 2.4 -14.1 -3 -11.9 -6.4C-9.6 -9.9 -4.8 -11.4 -0.2 -11.3C4.5 -11.2 9 -9.5 11.4 -6Z" fill="#2f2f2f"></path></g><g transform="translate(370 503)"><path d="M9.3 -5.2C11.3 -2 11.5 2.3 9.6 5.7C7.8 9.1 3.9 11.5 0.1 11.5C-3.8 11.4 -7.6 9 -9.6 5.5C-11.7 2 -12.1 -2.6 -10.2 -5.7C-8.3 -8.9 -4.2 -10.5 -0.2 -10.4C3.7 -10.3 7.4 -8.3 9.3 -5.2Z" fill="#2f2f2f"></path></g><g transform="translate(692 256)"><path d="M8.1 -4.9C9.7 -2 9.5 1.7 7.8 4.7C6.2 7.7 3.1 10.1 -0.2 10.2C-3.4 10.3 -6.8 8.1 -8.2 5.2C-9.6 2.3 -9 -1.3 -7.3 -4.3C-5.6 -7.3 -2.8 -9.7 0.2 -9.8C3.3 -9.9 6.6 -7.8 8.1 -4.9Z" fill="#2f2f2f"></path></g><g transform="translate(247 112)"><path d="M10.7 -6.4C13 -2.3 13.2 2.7 11.1 6.2C9 9.6 4.5 11.4 0.3 11.2C-3.9 11 -7.7 8.9 -9.6 5.6C-11.4 2.3 -11.3 -2 -9.3 -5.9C-7.4 -9.8 -3.7 -13.2 0.3 -13.4C4.2 -13.5 8.5 -10.4 10.7 -6.4Z" fill="#2f2f2f"></path></g><g transform="translate(177 408)"><path d="M12.6 -6.9C15.5 -2.2 16.5 3.9 14.1 8.4C11.7 12.9 5.8 15.6 0.2 15.5C-5.4 15.4 -10.7 12.3 -13.4 7.7C-16 3.1 -16 -3.1 -13.3 -7.6C-10.6 -12.2 -5.3 -15.2 -0.2 -15C4.8 -14.9 9.7 -11.6 12.6 -6.9Z" fill="#2f2f2f"></path></g><g transform="translate(646 39)"><path d="M13.8 -8C16.7 -3.1 16.8 3.4 14.1 7.8C11.3 12.2 5.7 14.5 0.1 14.5C-5.4 14.4 -10.8 11.9 -13.6 7.5C-16.4 3 -16.5 -3.3 -13.8 -8.1C-11.1 -13 -5.5 -16.3 0 -16.3C5.5 -16.3 11 -12.9 13.8 -8Z" fill="#2f2f2f"></path></g><g transform="translate(283 306)"><path d="M13.5 -7.3C16.5 -2.6 17.3 3.9 14.6 8.8C12 13.8 6 17.2 0.2 17.1C-5.7 17 -11.3 13.4 -13.8 8.6C-16.2 3.7 -15.5 -2.4 -12.6 -7C-9.8 -11.5 -4.9 -14.5 0.2 -14.6C5.3 -14.7 10.5 -11.9 13.5 -7.3Z" fill="#2f2f2f"></path></g><g transform="translate(31 303)"><path d="M14 -7.5C17 -2.7 17.8 4 15 9C12.3 14.1 6.2 17.5 -0.1 17.6C-6.3 17.6 -12.6 14.3 -15.5 9.1C-18.5 3.9 -18.1 -3.2 -14.9 -8C-11.8 -12.9 -5.9 -15.6 -0.2 -15.4C5.4 -15.3 10.9 -12.4 14 -7.5Z" fill="#2f2f2f"></path></g><g transform="translate(748 249)"><path d="M8.5 -4.8C10.1 -2.1 9.8 1.7 8.1 4.6C6.4 7.5 3.2 9.4 0.1 9.4C-3 9.3 -6 7.3 -7.7 4.4C-9.3 1.6 -9.6 -2.1 -8.1 -4.7C-6.6 -7.3 -3.3 -8.9 0.1 -9C3.4 -9 6.9 -7.5 8.5 -4.8Z" fill="#2f2f2f"></path></g><g transform="translate(663 412)"><path d="M5.3 -3.1C6.4 -1.1 6.5 1.3 5.4 3C4.4 4.6 2.2 5.4 0 5.4C-2.1 5.4 -4.2 4.5 -5.3 2.9C-6.3 1.2 -6.4 -1.3 -5.3 -3.2C-4.3 -5.1 -2.1 -6.5 0 -6.5C2.1 -6.4 4.2 -5 5.3 -3.1Z" fill="#2f2f2f"></path></g><g transform="translate(932 510)"><path d="M11.8 -6.8C14.1 -2.8 14 2.6 11.6 6.8C9.2 11.1 4.6 14.2 -0.2 14.3C-4.9 14.4 -9.8 11.4 -12.1 7.2C-14.4 3 -14.1 -2.5 -11.7 -6.6C-9.2 -10.6 -4.6 -13.3 0.1 -13.3C4.8 -13.4 9.5 -10.8 11.8 -6.8Z" fill="#2f2f2f"></path></g><g transform="translate(866 327)"><path d="M7.6 -4.2C9.2 -1.8 9.2 1.8 7.6 4.1C6.1 6.4 3.1 7.5 0 7.4C-3 7.4 -5.9 6.3 -7.2 4.1C-8.4 2 -7.9 -1.1 -6.4 -3.6C-4.9 -6 -2.5 -7.8 0.3 -8C3.1 -8.1 6.1 -6.7 7.6 -4.2Z" fill="#2f2f2f"></path></g><g transform="translate(852 97)"><path d="M9.6 -5.3C11.8 -1.7 12.5 2.9 10.6 6.4C8.8 9.8 4.4 11.9 0.1 11.9C-4.2 11.8 -8.3 9.5 -10.6 5.8C-12.9 2.2 -13.4 -2.9 -11.3 -6.4C-9.2 -9.8 -4.6 -11.7 -0.4 -11.4C3.7 -11.2 7.4 -8.8 9.6 -5.3Z" fill="#2f2f2f"></path></g><g transform="translate(325 48)"><path d="M10.3 -5.8C12.4 -2.2 12.6 2.6 10.6 6.4C8.6 10.1 4.3 12.9 0 12.9C-4.2 12.8 -8.4 10.1 -10.3 6.4C-12.1 2.7 -11.6 -1.8 -9.5 -5.4C-7.4 -9 -3.7 -11.6 0.2 -11.7C4.1 -11.8 8.1 -9.4 10.3 -5.8Z" fill="#2f2f2f"></path></g><g transform="translate(438 311)"><path d="M8.4 -4.7C10.1 -1.9 10.3 2.1 8.6 5.2C6.9 8.3 3.5 10.6 -0.1 10.7C-3.7 10.8 -7.4 8.6 -9.3 5.3C-11.2 2.1 -11.3 -2.3 -9.5 -5.2C-7.6 -8.2 -3.8 -9.8 -0.2 -9.6C3.3 -9.5 6.7 -7.6 8.4 -4.7Z" fill="#2f2f2f"></path></g><g transform="translate(581 494)"><path d="M4.9 -3C5.9 -1.2 5.8 1.1 4.8 2.9C3.8 4.7 1.9 6.1 0 6.1C-1.9 6.1 -3.8 4.7 -4.9 2.8C-6.1 0.9 -6.5 -1.6 -5.5 -3.3C-4.6 -5.1 -2.3 -6.3 -0.2 -6.2C2 -6.1 4 -4.8 4.9 -3Z" fill="#2f2f2f"></path></g><g transform="translate(107 95)"><path d="M11 -6.8C13.2 -2.5 13.3 2.6 11.1 6.7C8.9 10.8 4.4 13.9 -0.4 14.1C-5.2 14.3 -10.4 11.6 -12.6 7.5C-14.9 3.4 -14.3 -2.3 -11.7 -6.8C-9.1 -11.3 -4.5 -14.7 -0.1 -14.6C4.4 -14.6 8.8 -11.1 11 -6.8Z" fill="#2f2f2f"></path></g><g transform="translate(222 513)"><path d="M10.5 -5.9C12.7 -2.3 12.8 2.6 10.7 6.6C8.6 10.6 4.3 13.8 0.1 13.8C-4.2 13.7 -8.3 10.5 -10.4 6.4C-12.5 2.4 -12.4 -2.4 -10.3 -5.9C-8.3 -9.4 -4.1 -11.6 0 -11.6C4.2 -11.6 8.4 -9.4 10.5 -5.9Z" fill="#2f2f2f"></path></g><g transform="translate(764 339)"><path d="M11.3 -6.6C13.7 -2.3 14.2 3 11.9 7.3C9.7 11.6 4.9 14.8 0.2 14.7C-4.5 14.6 -9 11.2 -11.6 6.7C-14.2 2.2 -15 -3.4 -12.7 -7.6C-10.4 -11.7 -5.2 -14.3 -0.4 -14.1C4.4 -13.9 8.9 -10.8 11.3 -6.6Z" fill="#2f2f2f"></path></g><g transform="translate(504 412)"><path d="M7 -3.8C8.5 -1.5 8.8 1.9 7.4 4.1C6 6.4 3 7.6 0.1 7.5C-2.7 7.5 -5.4 6.1 -7 3.7C-8.5 1.4 -8.8 -1.9 -7.4 -4.2C-6.1 -6.6 -3 -7.9 -0.1 -7.8C2.8 -7.7 5.5 -6.2 7 -3.8Z" fill="#2f2f2f"></path></g><g transform="translate(321 511)"><path d="M6.4 -3.4C7.9 -1.2 8.2 1.9 7 3.9C5.7 5.9 2.9 6.9 0.1 6.8C-2.7 6.8 -5.4 5.7 -6.7 3.7C-8 1.6 -7.8 -1.4 -6.5 -3.6C-5.1 -5.8 -2.6 -7.1 0 -7C2.5 -7 5 -5.7 6.4 -3.4Z" fill="#2f2f2f"></path></g><g transform="translate(75 504)"><path d="M13.5 -8.2C16.2 -3.1 16.3 3.2 13.6 8.2C10.9 13.3 5.5 17.1 0.1 17.1C-5.3 17 -10.5 13.1 -13.3 8C-16.1 2.9 -16.4 -3.4 -13.7 -8.5C-11.1 -13.6 -5.5 -17.6 -0.1 -17.6C5.4 -17.5 10.7 -13.4 13.5 -8.2Z" fill="#2f2f2f"></path></g><g transform="translate(41 196)"><path d="M12 -6.4C14.4 -2.8 14.4 2.8 12 6.9C9.6 11 4.8 13.7 0 13.7C-4.8 13.7 -9.6 11 -11.9 6.9C-14.3 2.8 -14.2 -2.7 -11.8 -6.3C-9.4 -9.9 -4.7 -11.7 0 -11.7C4.8 -11.7 9.6 -10 12 -6.4Z" fill="#2f2f2f"></path></g><g transform="translate(514 335)"><path d="M10.1 -5.6C12.2 -2.3 12.2 2.4 10.2 5.4C8.2 8.5 4.1 9.9 0.2 9.8C-3.6 9.7 -7.3 8 -9 5.1C-10.8 2.2 -10.6 -2 -8.8 -5.2C-7 -8.3 -3.5 -10.6 0.3 -10.8C4 -10.9 8.1 -9 10.1 -5.6Z" fill="#2f2f2f"></path></g><g transform="translate(530 149)"><path d="M6.7 -3.8C8.1 -1.5 8.1 1.6 6.8 3.9C5.4 6.2 2.7 7.7 0.1 7.6C-2.4 7.6 -4.8 5.9 -6 3.6C-7.2 1.4 -7.2 -1.4 -6 -3.6C-4.8 -5.8 -2.4 -7.4 0.1 -7.5C2.7 -7.6 5.4 -6.1 6.7 -3.8Z" fill="#2f2f2f"></path></g><g transform="translate(817 354)"><path d="M6.7 -3.7C8.2 -1.3 8.6 2 7.3 4.1C6 6.3 3 7.3 0.1 7.2C-2.8 7.2 -5.5 6 -6.8 3.9C-8 1.8 -7.8 -1.3 -6.4 -3.7C-5 -6.1 -2.5 -7.9 0.1 -7.9C2.6 -8 5.2 -6.2 6.7 -3.7Z" fill="#2f2f2f"></path></g><g transform="translate(537 266)"><path d="M8.8 -5.3C10.4 -2.2 10.1 1.7 8.3 4.6C6.5 7.5 3.3 9.3 0 9.3C-3.3 9.3 -6.5 7.5 -8.1 4.7C-9.7 1.9 -9.7 -1.8 -8 -4.9C-6.4 -7.9 -3.2 -10.3 0.2 -10.4C3.6 -10.5 7.1 -8.4 8.8 -5.3Z" fill="#2f2f2f"></path></g><g transform="translate(692 151)"><path d="M8.4 -4.6C10.2 -1.6 10.7 2.4 9 5.3C7.4 8.2 3.7 9.9 0.2 9.8C-3.3 9.7 -6.7 7.8 -8.4 4.8C-10 1.9 -10.1 -1.9 -8.4 -4.8C-6.7 -7.7 -3.4 -9.5 0 -9.5C3.3 -9.5 6.5 -7.6 8.4 -4.6Z" fill="#2f2f2f"></path></g><g transform="translate(689 199)"><path d="M10.7 -6.7C12.6 -3 11.8 1.7 9.6 5.6C7.4 9.4 3.7 12.4 -0.1 12.5C-3.8 12.5 -7.7 9.6 -9.8 5.8C-11.8 2 -12.2 -2.6 -10.3 -6.3C-8.3 -10.1 -4.2 -13 0.1 -13C4.4 -13.1 8.9 -10.4 10.7 -6.7Z" fill="#2f2f2f"></path></g><g transform="translate(602 84)"><path d="M6.7 -3.9C8 -1.7 7.7 1.3 6.3 3.6C5 6 2.5 7.7 0 7.7C-2.5 7.7 -5.1 6.1 -6.4 3.7C-7.8 1.4 -7.9 -1.6 -6.6 -3.8C-5.4 -6 -2.7 -7.4 0 -7.4C2.7 -7.4 5.5 -6.1 6.7 -3.9Z" fill="#2f2f2f"></path></g><g transform="translate(446 176)"><path d="M10 -6C12.2 -2 12.6 2.8 10.6 6.3C8.7 9.8 4.3 12.1 0.2 11.9C-4 11.8 -7.9 9.4 -10.2 5.7C-12.5 1.9 -13.1 -3 -11.1 -6.9C-9.1 -10.8 -4.6 -13.6 -0.3 -13.4C3.9 -13.2 7.8 -10 10 -6Z" fill="#2f2f2f"></path></g><g transform="translate(164 92)"><path d="M12.9 -7.2C15.5 -3 15.4 2.9 12.8 6.9C10.2 11 5.1 13.1 0.2 13C-4.7 12.8 -9.4 10.5 -12 6.5C-14.6 2.5 -15.1 -3.2 -12.7 -7.3C-10.3 -11.3 -5.2 -13.7 0 -13.7C5.2 -13.7 10.4 -11.4 12.9 -7.2Z" fill="#2f2f2f"></path></g><g transform="translate(898 143)"><path d="M6.3 -3.4C7.9 -1 8.5 2.1 7.3 4.6C6.1 7.1 3 9 0 9C-3 9 -6 7.1 -7.4 4.5C-8.8 1.9 -8.5 -1.4 -7 -3.8C-5.5 -6.2 -2.7 -7.6 -0.2 -7.5C2.4 -7.4 4.8 -5.8 6.3 -3.4Z" fill="#2f2f2f"></path></g><g transform="translate(468 226)"><path d="M5.1 -3.2C6 -1.4 5.7 0.8 4.6 2.5C3.6 4.2 1.8 5.4 -0.1 5.4C-2 5.5 -4 4.5 -5.1 2.8C-6.1 1.1 -6.2 -1.3 -5.2 -3.2C-4.2 -5 -2.1 -6.4 0 -6.4C2.1 -6.3 4.2 -5 5.1 -3.2Z" fill="#2f2f2f"></path></g><g transform="translate(123 396)"><path d="M5.1 -2.9C6.2 -1.1 6.3 1.3 5.3 3.2C4.3 5.1 2.1 6.4 0 6.4C-2.1 6.4 -4.1 5 -5.4 3C-6.6 1 -6.9 -1.6 -5.9 -3.3C-4.8 -5.1 -2.4 -5.9 -0.2 -5.8C2 -5.7 4.1 -4.6 5.1 -2.9Z" fill="#2f2f2f"></path></g><g transform="translate(219 38)"><path d="M15.2 -9.2C17.9 -4.1 17 2.6 13.9 8C10.8 13.3 5.4 17.4 0.2 17.2C-4.9 17.1 -9.9 12.8 -12.7 7.6C-15.5 2.4 -16.3 -3.7 -13.8 -8.7C-11.3 -13.6 -5.7 -17.4 0.3 -17.6C6.2 -17.8 12.5 -14.3 15.2 -9.2Z" fill="#2f2f2f"></path></g><g transform="translate(705 24)"><path d="M12.3 -6.9C14.9 -2.6 15.2 3.2 12.8 7.8C10.4 12.4 5.2 15.8 0.4 15.5C-4.3 15.3 -8.7 11.4 -10.9 6.9C-13 2.5 -13.1 -2.5 -10.9 -6.6C-8.7 -10.7 -4.4 -13.9 0.3 -14C4.9 -14.1 9.7 -11.3 12.3 -6.9Z" fill="#2f2f2f"></path></g><g transform="translate(721 397)"><path d="M11.9 -6.2C14.5 -2.2 15.3 3.5 13 7.4C10.7 11.2 5.4 13.1 0.2 13C-4.9 12.9 -9.8 10.7 -12.3 6.7C-14.8 2.8 -14.9 -2.9 -12.4 -6.8C-10 -10.6 -5 -12.6 -0.2 -12.4C4.6 -12.3 9.2 -10.1 11.9 -6.2Z" fill="#2f2f2f"></path></g><g transform="translate(646 228)"><path d="M10.3 -6.2C12.1 -2.7 11.7 1.9 9.6 5.4C7.5 8.9 3.7 11.4 -0.1 11.4C-4 11.5 -8 9.2 -9.9 5.8C-11.9 2.4 -11.8 -2.2 -9.8 -5.8C-7.8 -9.4 -3.9 -11.9 0.1 -12C4.2 -12.1 8.4 -9.7 10.3 -6.2Z" fill="#2f2f2f"></path></g><g transform="translate(64 266)"><path d="M9.7 -5.6C11.5 -2.4 11.3 2 9.4 5.4C7.4 8.8 3.7 11.1 0.1 11.1C-3.5 11 -7 8.6 -8.8 5.3C-10.6 2 -10.7 -2.1 -8.9 -5.2C-7.1 -8.4 -3.6 -10.6 0.2 -10.7C3.9 -10.8 7.8 -8.8 9.7 -5.6Z" fill="#2f2f2f"></path></g><g transform="translate(298 230)"><path d="M5.7 -3.2C6.8 -1.4 6.7 1.2 5.5 3.3C4.4 5.5 2.2 7.1 0.1 7.1C-2 7 -4 5.3 -5.2 3.1C-6.3 1 -6.6 -1.5 -5.6 -3.3C-4.6 -5.1 -2.3 -6.1 0 -6.1C2.3 -6.1 4.6 -5 5.7 -3.2Z" fill="#2f2f2f"></path></g><g transform="translate(589 25)"><path d="M14.2 -8.6C17 -3.4 16.9 3.1 14 7.6C11.1 12.1 5.6 14.6 -0.3 14.8C-6.3 15 -12.5 12.9 -15.3 8.5C-18.2 4 -17.5 -2.9 -14.4 -8.3C-11.3 -13.6 -5.6 -17.5 0 -17.5C5.7 -17.6 11.4 -13.7 14.2 -8.6Z" fill="#2f2f2f"></path></g><g transform="translate(611 262)"><path d="M5.2 -2.8C6.3 -1 6.6 1.5 5.6 3.3C4.5 5.1 2.3 6.3 0.1 6.3C-2 6.2 -4 4.8 -5 3C-5.9 1.2 -5.8 -1 -4.8 -2.8C-3.8 -4.5 -1.9 -5.7 0.1 -5.8C2 -5.8 4.1 -4.7 5.2 -2.8Z" fill="#2f2f2f"></path></g><g transform="translate(397 202)"><path d="M5.2 -3C6.3 -1.1 6.4 1.3 5.4 3C4.4 4.6 2.2 5.4 0 5.4C-2.3 5.4 -4.5 4.7 -5.6 3C-6.6 1.4 -6.5 -1.1 -5.3 -3C-4.2 -4.9 -2.1 -6.2 0 -6.2C2 -6.1 4.1 -4.8 5.2 -3Z" fill="#2f2f2f"></path></g><g transform="translate(638 491)"><path d="M10.8 -6.7C12.9 -2.6 12.7 2.3 10.5 6.4C8.4 10.4 4.2 13.6 -0.6 13.9C-5.3 14.3 -10.7 11.8 -13 7.7C-15.2 3.6 -14.4 -2.1 -11.7 -6.6C-9.1 -11.1 -4.5 -14.3 -0.1 -14.2C4.4 -14.2 8.7 -10.9 10.8 -6.7Z" fill="#2f2f2f"></path></g><g transform="translate(786 183)"><path d="M4.5 -2.5C5.4 -1 5.5 1.1 4.6 2.9C3.7 4.6 1.9 6.1 0 6.1C-1.8 6.1 -3.6 4.6 -4.7 2.7C-5.8 0.8 -6.2 -1.5 -5.3 -3C-4.4 -4.6 -2.2 -5.3 -0.2 -5.2C1.8 -5.1 3.5 -4.1 4.5 -2.5Z" fill="#2f2f2f"></path></g><g transform="translate(659 291)"><path d="M7.3 -4.1C8.7 -2 8.3 1.3 6.7 3.9C5.2 6.5 2.6 8.4 0 8.4C-2.6 8.4 -5.2 6.4 -6.5 3.9C-7.9 1.4 -8 -1.6 -6.7 -3.8C-5.4 -5.9 -2.7 -7.2 0.2 -7.3C3 -7.4 6 -6.3 7.3 -4.1Z" fill="#2f2f2f"></path></g><g transform="translate(167 236)"><path d="M5.4 -3.1C6.4 -1.4 6.2 1.1 5.1 3.2C4 5.3 2 7.1 -0.1 7.2C-2.2 7.3 -4.5 5.6 -5.6 3.5C-6.7 1.3 -6.6 -1.2 -5.4 -3C-4.3 -4.8 -2.2 -5.8 0 -5.8C2.2 -5.8 4.4 -4.8 5.4 -3.1Z" fill="#2f2f2f"></path></g><g transform="translate(430 120)"><path d="M6.9 -4.1C8.2 -1.8 8 1.3 6.6 3.8C5.2 6.2 2.6 8 0 8C-2.6 8 -5.2 6.3 -6.5 3.9C-7.7 1.6 -7.5 -1.3 -6.2 -3.7C-4.9 -6 -2.4 -7.8 0.2 -7.9C2.8 -8 5.6 -6.4 6.9 -4.1Z" fill="#2f2f2f"></path></g><g transform="translate(474 505)"><path d="M7.5 -4.2C9 -1.9 8.8 1.5 7.2 4C5.7 6.5 2.9 8.1 0.2 8C-2.5 7.9 -5 6.1 -6.5 3.7C-7.9 1.2 -8.3 -1.9 -7.1 -4.2C-5.8 -6.4 -2.9 -7.8 0.1 -7.9C3.1 -7.9 6.1 -6.6 7.5 -4.2Z" fill="#2f2f2f"></path></g><g transform="translate(155 451)"><path d="M5.5 -2.9C6.7 -1 7.2 1.7 6.1 3.6C5 5.6 2.5 6.8 0.3 6.6C-2 6.4 -3.9 4.9 -5 3C-6.1 1 -6.4 -1.4 -5.4 -3.1C-4.4 -4.8 -2.2 -5.9 0 -5.8C2.1 -5.8 4.2 -4.7 5.5 -2.9Z" fill="#2f2f2f"></path></g><g transform="translate(838 433)"><path d="M8.8 -5.1C10.5 -2 10.5 2 8.8 5.1C7 8.1 3.5 10.1 0.2 10C-3.2 9.9 -6.3 7.7 -8.2 4.6C-10.1 1.4 -10.8 -2.6 -9.2 -5.6C-7.7 -8.6 -3.8 -10.7 -0.2 -10.6C3.5 -10.5 7 -8.3 8.8 -5.1Z" fill="#2f2f2f"></path></g><g transform="translate(935 348)"><path d="M11.6 -7.2C13.8 -2.7 13.8 2.6 11.4 7.1C9.1 11.6 4.6 15.2 -0.3 15.4C-5.2 15.6 -10.4 12.3 -13.1 7.6C-15.7 2.9 -15.8 -3.1 -13.2 -7.8C-10.6 -12.4 -5.3 -15.6 -0.3 -15.4C4.6 -15.2 9.3 -11.6 11.6 -7.2Z" fill="#2f2f2f"></path></g><g transform="translate(369 392)"><path d="M8.2 -4.8C9.8 -1.9 9.8 1.9 8.2 4.9C6.5 7.9 3.3 10.2 -0.1 10.3C-3.4 10.3 -6.8 8.1 -9 4.8C-11.1 1.4 -12 -3 -10.3 -5.9C-8.6 -8.8 -4.3 -10.2 -0.5 -9.9C3.3 -9.6 6.5 -7.6 8.2 -4.8Z" fill="#2f2f2f"></path></g><g transform="translate(935 439)"><path d="M8.2 -4.6C9.9 -1.9 9.9 1.9 8.2 4.8C6.6 7.8 3.3 9.9 -0.2 10C-3.6 10.1 -7.3 8.2 -9 5.2C-10.8 2.1 -10.7 -2 -8.9 -4.8C-7.1 -7.7 -3.5 -9.2 -0.1 -9.1C3.3 -9 6.6 -7.4 8.2 -4.6Z" fill="#2f2f2f"></path></g><g transform="translate(399 441)"><path d="M8.9 -4.7C10.9 -1.7 11.4 2.6 9.7 5.5C7.9 8.4 4 10 0.1 10C-3.8 9.9 -7.7 8.3 -9.4 5.3C-11.2 2.4 -10.8 -1.8 -8.9 -4.9C-7 -7.9 -3.5 -9.7 0 -9.7C3.4 -9.7 6.9 -7.8 8.9 -4.7Z" fill="#2f2f2f"></path></g><g transform="translate(370 162)"><path d="M5.5 -3.4C6.6 -1.3 6.5 1.2 5.4 3C4.3 4.8 2.1 5.9 -0.1 5.9C-2.3 6 -4.7 5 -5.8 3.2C-7 1.3 -7 -1.4 -5.9 -3.5C-4.7 -5.7 -2.4 -7.2 -0.1 -7.2C2.2 -7.2 4.4 -5.5 5.5 -3.4Z" fill="#2f2f2f"></path></g><g transform="translate(934 174)"><path d="M9 -5.3C11 -1.8 11.4 2.5 9.6 5.6C7.8 8.8 3.9 10.8 0.2 10.7C-3.4 10.5 -6.8 8.2 -8.4 5.2C-10 2.1 -9.8 -1.7 -8.1 -5C-6.4 -8.3 -3.2 -11.1 0.2 -11.2C3.5 -11.3 7.1 -8.7 9 -5.3Z" fill="#2f2f2f"></path></g><g transform="translate(848 239)"><path d="M11.3 -6.6C13.3 -2.9 12.9 2.1 10.5 5.5C8.2 8.8 4.1 10.6 0 10.5C-4.1 10.5 -8.2 8.8 -10.5 5.4C-12.8 2 -13.3 -3 -11.3 -6.6C-9.2 -10.3 -4.6 -12.6 0 -12.6C4.6 -12.6 9.2 -10.3 11.3 -6.6Z" fill="#2f2f2f"></path></g><g transform="translate(454 444)"><path d="M12.5 -7.1C15.4 -2.2 16.4 3.9 14 8.1C11.6 12.3 5.8 14.5 0 14.5C-5.9 14.5 -11.7 12.3 -14.6 7.9C-17.4 3.5 -17.2 -3.2 -14.3 -8.1C-11.4 -12.9 -5.7 -16 -0.4 -15.8C4.8 -15.5 9.6 -11.9 12.5 -7.1Z" fill="#2f2f2f"></path></g><g transform="translate(222 271)"><path d="M13.5 -7.4C16.4 -2.9 16.6 3.4 13.9 7.9C11.2 12.3 5.6 14.9 -0.1 15C-5.8 15 -11.7 12.6 -14.5 8C-17.3 3.5 -17.1 -3.2 -14.2 -7.7C-11.3 -12.2 -5.7 -14.6 -0.1 -14.5C5.4 -14.4 10.7 -11.8 13.5 -7.4Z" fill="#2f2f2f"></path></g><g transform="translate(28 25)"><path d="M7.4 -4.4C8.9 -1.5 9.1 1.9 7.7 4.4C6.2 7 3.1 8.5 0.1 8.4C-2.8 8.4 -5.6 6.6 -7.1 4.1C-8.5 1.6 -8.6 -1.7 -7.2 -4.5C-5.8 -7.3 -2.9 -9.6 0 -9.7C2.9 -9.7 5.8 -7.3 7.4 -4.4Z" fill="#2f2f2f"></path></g><g transform="translate(473 277)"><path d="M8.2 -4.7C9.8 -1.8 9.9 2 8.3 4.6C6.6 7.3 3.3 8.8 0.3 8.6C-2.8 8.5 -5.5 6.6 -7 4.1C-8.4 1.5 -8.6 -1.7 -7.2 -4.4C-5.8 -7.1 -2.9 -9.2 0.2 -9.3C3.2 -9.4 6.5 -7.5 8.2 -4.7Z" fill="#2f2f2f"></path></g><g transform="translate(92 27)"><path d="M6.3 -3.5C7.5 -1.5 7.5 1.4 6.2 3.4C5 5.4 2.5 6.5 0.2 6.4C-2.1 6.3 -4.3 5 -5.3 3.2C-6.3 1.3 -6.1 -1.1 -5 -3C-4 -5 -2 -6.6 0.3 -6.7C2.5 -6.9 5 -5.6 6.3 -3.5Z" fill="#2f2f2f"></path></g><g transform="translate(391 289)"><path d="M7.2 -4.1C8.8 -1.4 9.2 2.1 7.8 4.8C6.4 7.6 3.2 9.7 0.3 9.5C-2.6 9.4 -5.3 7 -6.8 4.1C-8.3 1.3 -8.7 -2 -7.4 -4.5C-6.1 -7.1 -3 -9 -0.1 -8.9C2.8 -8.8 5.6 -6.8 7.2 -4.1Z" fill="#2f2f2f"></path></g><g transform="translate(853 47)"><path d="M10.1 -5.7C12.1 -2.3 12.1 2.4 10.1 6.1C8.1 9.8 4.1 12.5 -0.1 12.6C-4.3 12.7 -8.6 10.1 -10.7 6.3C-12.9 2.5 -12.8 -2.4 -10.7 -5.9C-8.5 -9.3 -4.3 -11.2 -0.1 -11.2C4 -11.1 8 -9 10.1 -5.7Z" fill="#2f2f2f"></path></g><g transform="translate(533 28)"><path d="M10.7 -5.8C13 -2.1 13.5 3 11.4 6.5C9.3 10 4.7 12 0.1 11.9C-4.4 11.9 -8.8 9.8 -11 6.2C-13.1 2.6 -13 -2.4 -10.8 -6C-8.6 -9.6 -4.3 -11.7 -0.1 -11.6C4.2 -11.6 8.4 -9.4 10.7 -5.8Z" fill="#2f2f2f"></path></g><g transform="translate(805 79)"><path d="M7.8 -4.2C9.4 -1.6 9.7 2.1 8.2 4.9C6.7 7.6 3.3 9.5 0.4 9.3C-2.6 9 -5.2 6.8 -6.6 4.1C-8.1 1.4 -8.3 -1.8 -7 -4.2C-5.7 -6.5 -2.8 -8.1 0.1 -8.2C3 -8.3 6.1 -6.8 7.8 -4.2Z" fill="#2f2f2f"></path></g><g transform="translate(278 420)"><path d="M4.6 -2.9C5.5 -1.1 5.4 1 4.5 2.8C3.6 4.6 1.8 6.1 -0.2 6.2C-2.2 6.3 -4.3 5 -5.5 3.1C-6.6 1.2 -6.7 -1.4 -5.6 -3.2C-4.6 -5.1 -2.3 -6.2 -0.2 -6.1C1.9 -5.9 3.7 -4.6 4.6 -2.9Z" fill="#2f2f2f"></path></g></g></svg>